<svg xmlns="http://www.w3.org/2000/svg" width="87" height="84" viewBox="0 0 87 84">
    <path fill="none" fill-rule="evenodd" stroke="#FFF" stroke-width="3" d="M33.83 77.21c-5.715-6.75-12.93.086-18.904 2.813-1.295.593-2.771 1.359-4.217 1.539-1.363.17-2.69-.58-3.913-1.141-2.936-1.344-5.452-4.664-4.642-8 2.079-8.555 12.663-8.617 17.626-14.492 3.96-4.688 6.334-10.97 7.273-16.922.377-2.391 1.113-5.86-.272-7.945-.404-.602-.79-.907-1.378-1.33-1.501-1.07-3.426-1.85-4.964-2.928-2.706-1.891-5.308-5.328-5.538-8.742C14.376 12.265 20.155 2.64 28.566 2.1 38.55 1.46 49.63 3.749 55.253 12.88c.95 1.54 1.983 3.415 2.402 5.212.567 2.422.309 5.015.957 7.453.959 3.609 2.553 7.094 6.285 8.234 4.102 1.258 8.012 2.39 11.406 5.188 4.482 3.679 6.424 9.07 7.725 14.53 1.252 5.259 1.914 11.274-.251 16.384-1.18 2.78-5.336 4.68-8.232 3.492-2.544-1.047-3.567-5.227-4.671-7.414-2.19-4.344-4.885-8.367-8.87-11.312-2.23-1.641-3.628-2.266-6.223-1.33-3.047 1.103-3.66 2.923-3.572 6.017.078 2.797 1.71 7.266-.414 9.547-1.3 1.39-2.922 1.586-4.76 1.562-.303 0-1.041.094-1.351.016-.887-.234-.927-.625-1.572-1.367-1.454-1.688-3.47-3.15-4.184-5.297-.406-1.22-.9-2.477-1.056-3.766-.194-1.593.019-3.234-.087-4.836-.393-5.945-.672-12.007-1.428-17.914-.32-2.5-.435-5.008-.877-7.461"/>
</svg>
